<?xml version="1.0" encoding="UTF-8"?>
<svg width="48px" height="48px" viewBox="0 0 48 48" version="1.1" xmlns="http://www.w3.org/2000/svg" xmlns:xlink="http://www.w3.org/1999/xlink">
    <title>公众号封面小图</title>
    <g id="公众号封面小图" stroke="none" stroke-width="1" fill="none" fill-rule="evenodd">
        <g fill="#3B3B3B" fill-rule="nonzero" id="形状结合">
            <path d="M35.693252,5.37435403 C39.5592453,5.37435403 42.693252,8.50836078 42.693252,12.374354 L42.693252,12.374354 L42.693252,35.6828532 C42.693252,39.5488465 39.5592453,42.6828532 35.693252,42.6828532 L35.693252,42.6828532 L12.3257183,42.6828532 C8.45972501,42.6828532 5.32571826,39.5488465 5.32571826,35.6828532 L5.32571826,35.6828532 L5.32571826,12.374354 C5.32571826,8.50836078 8.45972501,5.37435403 12.3257183,5.37435403 L12.3257183,5.37435403 Z M31.0535543,21.4213849 L30.9827482,21.4818854 L26.5507183,25.912354 L29.3525653,28.725103 C30.1336139,29.5061516 30.1336139,30.7724815 29.3525653,31.5535301 C28.607019,32.2990765 27.4193051,32.332965 26.6335616,31.6551955 L26.5241382,31.5535301 L19.909346,24.9135743 C19.5539913,24.5582196 18.952913,24.5433088 18.5197289,24.8975197 L18.4296243,24.9790823 L9.62029949,33.6826744 L9.41257854,33.8896566 L9.32471826,33.968354 L9.32571826,35.6828532 C9.32571826,37.2805341 10.5746382,38.5865141 12.1494455,38.6777605 L12.3257183,38.6828532 L35.693252,38.6828532 C37.3501063,38.6828532 38.693252,37.3397075 38.693252,35.6828532 L38.693252,35.6828532 L38.6927183,28.000354 L33.5606538,22.932916 L32.2501775,21.6286696 C31.8696085,21.2481006 31.355295,21.2014436 31.0535543,21.4213849 Z M35.693252,9.37435403 L12.3257183,9.37435403 C10.668864,9.37435403 9.32571826,10.7174998 9.32571826,12.374354 L9.32571826,12.374354 L9.32471826,28.353354 L15.2347746,22.5161671 L15.6011972,22.1506552 C17.5805345,20.1713179 20.7753645,20.1227386 22.7377731,22.0851471 L23.7287183,23.078354 L28.1543211,18.6534583 C30.0494343,16.758345 33.147742,16.8693799 35.0786046,18.8002425 L36.979373,20.6889747 L38.6927183,22.379354 L38.693252,12.374354 C38.693252,10.7766731 37.444332,9.47069315 35.8695248,9.37944672 L35.693252,9.37435403 Z"></path>
        </g>
    </g>
</svg>