<?xml version="1.0" encoding="UTF-8"?>
<svg width="48px" height="48px" viewBox="0 0 48 48" version="1.1" xmlns="http://www.w3.org/2000/svg" xmlns:xlink="http://www.w3.org/1999/xlink">
    <title>抖音个人背景</title>
    <g id="抖音个人背景" stroke="none" stroke-width="1" fill="none" fill-rule="evenodd">
        <rect id="矩形" fill-opacity="0.01" fill="#FFFFFF" x="0" y="0" width="48" height="48"></rect>
        <g fill="#3B3B3B" fill-rule="nonzero" id="形状结合">
            <path d="M35.7445853,5.25837881 C39.6105786,5.25837881 42.7445853,8.39238556 42.7445853,12.2583788 L42.7445853,12.2583788 L42.7445853,35.7416212 C42.7445853,39.6076144 39.6105786,42.7416212 35.7445853,42.7416212 L35.7445853,42.7416212 L12.2033639,42.7416212 C8.33737065,42.7416212 5.2033639,39.6076144 5.2033639,35.7416212 L5.2033639,35.7416212 L5.2033639,12.2583788 C5.2033639,8.39238556 8.33737065,5.25837881 12.2033639,5.25837881 L12.2033639,5.25837881 Z M12.2033639,9.25837881 C10.5465097,9.25837881 9.2033639,10.6015246 9.2033639,12.2583788 L9.2033639,12.2583788 L9.2033639,35.7416212 C9.2033639,37.3984754 10.5465097,38.7416212 12.2033639,38.7416212 L12.2033639,38.7416212 L35.7445853,38.7416212 C37.4014396,38.7416212 38.7445853,37.3984754 38.7445853,35.7416212 L38.7445853,35.7416212 L38.7445853,12.2583788 C38.7445853,10.6015246 37.4014396,9.71564535 35.7445853,9.71564535 L35.7445853,9.71564535 Z M28.1144967,14 C28.1144967,16.6269531 30.302004,18.7558594 33,18.7558594 L33,22.2773438 L32.9746865,22.2792969 C31.2027423,22.2792969 29.4793156,21.7460938 28.0617602,20.7597656 L28.0617602,27.640625 C28.0617602,31.1542969 25.1380523,34 21.5308801,34 C17.923708,34 15,31.1542969 15,27.640625 C15,24.1269531 17.923708,21.28125 21.5308801,21.28125 C21.8915973,21.28125 22.2417673,21.3105469 22.5834994,21.3652344 L22.5834994,25.0097656 C22.2565335,24.890625 21.908473,24.8300781 21.5583031,24.8300781 C19.9487871,24.8300781 18.6430329,26.0996094 18.6430329,27.6679688 C18.6430329,29.234375 19.9487871,30.5058594 21.5583031,30.5058594 C23.1657096,30.5058594 24.4714637,29.234375 24.4714637,27.6679688 L24.4714637,14 L28.1144967,14 Z"></path>
        </g>
    </g>
</svg>