<svg width="49" height="49" viewBox="0 0 49 49" fill="none" xmlns="http://www.w3.org/2000/svg">
<rect x="0.25" y="0.5" width="48" height="48" fill="white" fill-opacity="0.01"/>
<rect x="0.25" y="0.5" width="48" height="48" fill="white" fill-opacity="0.01"/>
<path d="M35.9761 6.27905C39.8418 6.27922 42.9758 9.41337 42.9761 13.2791V24.1912L43.0093 24.2244L42.9761 24.2576V31.7205C42.9761 35.5864 39.8419 38.7203 35.9761 38.7205H12.4907C8.62473 38.7205 5.49072 35.5865 5.49072 31.7205V13.2791C5.49097 9.41327 8.62488 6.27905 12.4907 6.27905H35.9761ZM32.0806 18.9519C31.7 18.5713 31.185 18.5249 30.8833 18.7449L30.813 18.8054L25.896 23.7214L28.8169 26.6531C29.5979 27.4341 29.5978 28.7001 28.8169 29.4812C28.0713 30.2267 26.8839 30.2605 26.0981 29.5828L25.9888 29.4812L19.3735 22.8416C19.0182 22.4863 18.417 22.4717 17.9839 22.8259L17.894 22.907L9.49072 31.1912V31.7205C9.49072 33.3773 10.8339 34.7205 12.4907 34.7205H35.9761C37.6328 34.7203 38.9761 33.3772 38.9761 31.7205V25.8474L32.0806 18.9519ZM12.4907 10.2791C10.834 10.2791 9.49097 11.6224 9.49072 13.2791V25.5759L14.5063 20.6355L15.0659 20.0789C17.0453 18.0995 20.2402 18.051 22.2026 20.0134L23.0728 20.8875L27.9849 15.9763C29.8288 14.1329 32.8113 14.1887 34.7495 15.9714L34.9087 16.1238L38.9761 20.1912V13.2791C38.9758 11.6225 37.6326 10.2792 35.9761 10.2791H12.4907Z" fill="#3B3B3B"/>
<path d="M24.0979 34.9183C25.1521 34.8996 26.0302 35.7001 26.1249 36.7334L26.133 36.8825L26.2496 43.4646C26.2692 44.569 25.3898 45.4802 24.2854 45.4997C23.2312 45.5184 22.353 44.718 22.2584 43.6846L22.2502 43.5355L22.1336 36.9534C22.1141 35.849 22.9935 34.9379 24.0979 34.9183Z" fill="#3B3B3B"/>
</svg>
