<?xml version="1.0" encoding="UTF-8"?>
<svg width="48px" height="48px" viewBox="0 0 48 48" version="1.1" xmlns="http://www.w3.org/2000/svg" xmlns:xlink="http://www.w3.org/1999/xlink">
    <title>1.8米展架</title>
    <g id="1.8米展架" stroke="none" stroke-width="1" fill="none" fill-rule="evenodd">
        <rect id="矩形" fill-opacity="0.01" fill="#FFFFFF" x="0" y="0" width="48" height="48"></rect>
        <path d="M33.3145441,5.2321558 C37.1805374,5.2321558 40.3145441,8.36616255 40.3145441,12.2321558 L40.3145441,12.2321558 L40.3145441,30.9796079 C40.3145441,34.8456011 37.1805374,37.9796079 33.3145441,37.9796079 L33.3145441,37.9796079 L31.1124559,37.9791558 L32.4946336,39.3617687 C33.2756822,40.1428173 33.2756822,41.4091472 32.4946336,42.1901958 C31.7546929,42.9301366 30.5792087,42.9690808 29.7934213,42.3070285 L29.6662065,42.1901958 L26.8334671,39.3574563 C25.3234398,37.8474291 22.9064756,37.7970948 21.3359858,39.2064536 L21.1766128,39.3574563 L18.3438734,42.1901958 C17.5628248,42.9712444 16.2964948,42.9712444 15.5154462,42.1901958 C14.7755055,41.450255 14.7365612,40.2747709 15.3986135,39.4889834 L15.5154462,39.3617687 L16.8964559,37.9791558 L14.6854559,37.9796079 C10.9000042,37.9796079 7.81635721,34.9748245 7.68951491,31.2202576 L7.68545589,30.9796079 L7.68545589,12.2321558 C7.68545589,8.36616255 10.8194626,5.2321558 14.6854559,5.2321558 L14.6854559,5.2321558 Z M29.9190164,19.2824942 L29.8827787,19.3080839 L26.3884559,22.8011558 L28.5608503,24.9827214 C29.3418989,25.76377 29.3418989,27.0300999 28.5608503,27.8111485 C27.8209095,28.5510893 26.6454254,28.5900335 25.8596379,27.9279813 L25.7324232,27.8111485 L20.3684374,22.4267574 C20.2269247,22.2852447 19.9756716,22.2731024 19.7756471,22.4180888 L19.7033536,22.4798784 L12.75196,29.3466197 L12.3910537,29.705841 C12.1839496,29.912467 11.9428672,30.0642643 11.6858385,30.1612537 L11.6854559,30.9796079 C11.6854559,32.6364621 13.0286016,33.9796079 14.6854559,33.9796079 L14.6854559,33.9796079 L33.3145441,33.9796079 C34.9713984,33.9796079 36.3145441,32.6364621 36.3145441,30.9796079 L36.3145441,30.9796079 L36.3144559,25.2191558 L30.8217447,19.8721312 L30.375713,19.4271124 C30.2088088,19.2602082 30.0175989,19.2332404 29.9190164,19.2824942 Z M33.3145441,9.2321558 L14.6854559,9.2321558 C13.0286016,9.2321558 11.6854559,10.5753016 11.6854559,12.2321558 L11.6854559,12.2321558 L11.6854559,24.7781558 L16.8749265,19.6514512 C18.5711696,17.9552081 21.2801637,17.8618146 23.0305327,19.4403473 L23.1968645,19.5983302 L23.5654559,19.9681558 L27.0543516,16.4796568 C28.7432585,14.7907499 31.4948129,14.889358 33.2041401,16.5986853 L34.3899774,17.7783281 L36.3144559,19.6461558 L36.3145441,12.2321558 C36.3145441,10.6344749 35.0656241,9.32849492 33.4908169,9.23724849 L33.3145441,9.2321558 Z" id="形状结合" fill="#3B3B3B" fill-rule="nonzero"></path>
    </g>
</svg>