<svg width="48" height="48" viewBox="0 0 48 48" fill="none" xmlns="http://www.w3.org/2000/svg">
<rect width="48" height="48" fill="white" fill-opacity="0.01"/>
<rect width="48" height="48" fill="white" fill-opacity="0.01"/>
<path d="M23.999 4C25.0533 4 25.9177 4.8158 25.9941 5.85059L25.999 6V7.25879H35.7441C39.6101 7.25879 42.7441 10.3928 42.7441 14.2588V28C42.7439 31.8658 39.61 35 35.7441 35H32.6406L35.7715 40.4229L35.8408 40.5547C36.2921 41.4891 35.9521 42.6271 35.0391 43.1543C34.0826 43.7064 32.8599 43.3791 32.3076 42.4229L28.0225 35H20.749L16.4639 42.4229C15.9115 43.3793 14.688 43.7066 13.7314 43.1543C12.8187 42.627 12.4785 41.4889 12.9297 40.5547L12.999 40.4229L16.1309 35H12.2031C8.33727 35 5.20335 31.8658 5.20312 28V14.2588C5.20312 10.3928 8.33713 7.25879 12.2031 7.25879H21.999V6C21.999 4.89568 22.8948 4.0004 23.999 4ZM34.3711 19.3643C33.9906 18.9838 33.4765 18.9364 33.1748 19.1562L33.1045 19.2168L28.6826 23.6377L29.1084 24.0654C29.8891 24.8465 29.8893 26.1126 29.1084 26.8936C28.3629 27.639 27.1754 27.6726 26.3896 26.9951L26.2793 26.8936L21.665 22.2539C21.3097 21.8986 20.7086 21.8832 20.2754 22.2373L20.1855 22.3193L11.4736 30.9062C11.7074 30.9647 11.9512 31 12.2031 31H35.7441C37.4009 31 38.7439 29.6567 38.7441 28V23.7373L34.3711 19.3643ZM12.2031 11.2588C10.5463 11.2588 9.20312 12.6019 9.20312 14.2588V27.5283L16.7979 20.0469L17.3564 19.4902C19.3357 17.511 22.5307 17.4626 24.4932 19.4248L25.8623 20.8018L30.2754 16.3887C32.1193 14.5448 35.1026 14.6 37.041 16.3828L37.2002 16.5352L38.7441 18.0791V14.2588C38.7441 12.6019 37.401 11.7158 35.7441 11.7158L12.2031 11.2588Z" fill="#1B2337"/>
</svg>
