<svg width="48" height="48" viewBox="0 0 48 48" fill="none" xmlns="http://www.w3.org/2000/svg">
<path d="M24 2C33.3888 2 41 9.61116 41 19C41 25.8121 36.9915 31.6844 31.2061 34.3965L32.5127 41.252C32.9819 43.7167 31.0921 46 28.583 46H19.417C16.9079 46 15.0181 43.7167 15.4873 41.252L16.792 34.3984C11.0071 31.686 7 25.8118 7 19C7 9.61116 14.6112 2 24 2ZM25.6914 26.8193C25.1461 26.9367 24.5804 27 24 27C23.4193 27 22.8532 26.9369 22.3076 26.8193L19.417 42H28.583L25.6914 26.8193ZM24 6C16.8203 6 11 11.8203 11 19C11 23.8413 13.648 28.0616 17.5732 30.2988L18.6006 24.9023C17.0026 23.4397 16 21.3371 16 19C16 14.5817 19.5817 11 24 11C28.4183 11 32 14.5817 32 19C32 21.3373 30.9968 23.4397 29.3984 24.9023L30.4258 30.2988C34.3514 28.0617 37 23.8417 37 19C37 11.8203 31.1797 6 24 6ZM24 15C21.7909 15 20 16.7909 20 19C20 21.2091 21.7909 23 24 23C26.2091 23 28 21.2091 28 19C28 16.7909 26.2091 15 24 15Z" fill="#1B2337"/>
</svg>
