<?xml version="1.0" encoding="UTF-8"?>
<svg width="48px" height="48px" viewBox="0 0 48 48" version="1.1" xmlns="http://www.w3.org/2000/svg" xmlns:xlink="http://www.w3.org/1999/xlink">
    <title>书签</title>
    <g id="书签" stroke="none" stroke-width="1" fill="none" fill-rule="evenodd">
        <rect id="矩形" fill-opacity="0.01" fill="#FFFFFF" x="0" y="0" width="48" height="48"></rect>
        <path d="M32.4296344,6 L15.5703656,6 C11.7043723,6 8.57036558,9.13400675 8.57036558,13 L8.57036558,40 L8.57562273,40.1481363 C8.67311974,41.5139064 10.1088496,42.3967237 11.3861919,41.8260415 L24,36.19 L36.6138081,41.8260415 C37.9367697,42.4171052 39.4296344,41.448994 39.4296344,40 L39.4296344,13 C39.4296344,9.13400675 36.2956277,6 32.4296344,6 Z M32.4296344,10 L32.6059072,10.0050927 C34.1807145,10.0963391 35.4296344,11.4023191 35.4296344,13 L35.429,36.915 L24.8158263,32.1739585 L24.6402304,32.1052342 C24.165733,31.9448773 23.6456452,31.9677855 23.1841737,32.1739585 L12.57,36.915 L12.5703656,13 C12.5703656,11.3431458 13.9135113,10 15.5703656,10 L32.4296344,10 Z" id="矩形" fill="#3B3B3B" fill-rule="nonzero"></path>
    </g>
</svg>